<svg width="42" height="27" viewBox="0 0 42 27" fill="none" xmlns="http://www.w3.org/2000/svg">
<path fill-rule="evenodd" clip-rule="evenodd" d="M33.729 21.7098L33.7546 21.72C34.5892 22.1093 35.506 22.6266 36.1614 23.2873C36.1924 23.3179 36.2231 23.3538 36.2642 23.3948C35.6852 23.6458 35.1372 23.9941 34.7428 24.4653C34.5124 24.7417 34.2816 25.1361 34.251 25.5048L34.1847 26.2476H38.4867L41.2573 24.3064L42 21.0287L40.9909 19.1134L40.9757 19.0929C40.0791 17.6946 39.6339 15.7281 39.3931 14.0943L39.2496 13.0956L39.5366 13.372L39.7363 12.0715C39.8747 11.1497 39.7363 10.2329 39.4086 9.37733L39.6696 9.49523L39.2907 8.09715C38.963 6.88833 38.3894 5.71557 37.4726 4.85501L37.1395 4.20502C36.5764 3.09858 34.7272 2.35591 32.9604 1.90023L33.9183 1.62876L31.2194 1.05518C30.3488 0.870963 29.4064 0.80426 28.5152 0.778664C27.6752 0.75811 26.8096 0.76315 25.944 0.799217L26.5897 0.153503L24.6894 0.343147C23.5473 0.461043 22.2105 0.886091 21.1199 1.24443C19.7164 1.71059 18.3083 2.23802 16.9407 2.80152C16.2852 2.98573 15.6193 3.13426 14.9587 3.27271C13.4887 3.56978 11.9626 3.8207 10.4672 3.99987C10.4467 3.89749 10.4262 3.80014 10.3955 3.7028C10.252 3.23665 9.93964 2.6937 9.55042 2.39159L9.10998 2.04876L5.32008 5.31612C2.7952 7.07293 0.6339 9.51074 0.111666 12.6296C-0.200914 14.4938 0.127025 16.7061 1.2947 18.2376L1.4482 18.4372L1.69415 18.4885C3.84006 18.9443 6.08315 18.5807 8.05485 17.6537L8.09584 17.6331C7.91671 18.7752 7.55309 19.9174 7.11777 20.9724C6.91281 21.4692 6.6722 22.0019 6.41085 22.4882L5.43794 22.6112L5.41742 22.6163C4.64924 22.7547 3.86569 23.067 3.36886 23.7022C3.1639 23.9633 2.98477 24.3372 2.96429 24.6751L2.9233 25.382L9.68856 25.4997L9.88841 25.3206C11.1739 24.163 12.4748 23.0158 13.7859 21.8891C13.8677 21.8174 13.9497 21.7457 14.0316 21.6739C14.2469 22.2015 14.4465 22.8161 14.59 23.405C13.8115 23.6151 12.9511 23.9582 12.5004 24.5421C12.2288 24.8955 12.0856 25.3921 12.2596 25.8223L12.4338 26.2476H18.7589L18.9637 26.0119C20.6894 24.0145 21.5295 21.5204 21.6985 18.9136L21.7086 18.7547C21.7699 18.7547 21.8265 18.7547 21.8878 18.76C23.4142 18.7803 24.9453 18.8213 26.4718 18.8777L26.7122 18.8828C27.0403 20.3886 27.6445 22.0172 28.1619 23.2208C27.496 23.4562 26.8763 23.8096 26.3896 24.3269C26.1336 24.5983 25.847 25.008 25.7392 25.382L25.4984 26.2476H33.3447L33.2679 24.4499C33.3036 23.4562 33.4571 22.5548 33.729 21.7098Z" fill="#dfdfdf"/>
<path fill-rule="evenodd" clip-rule="evenodd" d="M4.52625 11.6103C4.09606 11.6103 3.74271 11.9588 3.74271 12.389C3.74271 12.8242 4.09606 13.1725 4.52625 13.1725C4.95649 13.1725 5.30471 12.8242 5.30471 12.389C5.30471 11.9588 4.95649 11.6103 4.52625 11.6103ZM34.9272 25.5663C34.9272 25.5663 35.0296 24.4192 37.3086 23.7381C37.3086 23.7381 36.9041 22.4321 34.0412 21.1056C35.4544 17.9661 38.1487 16.0558 38.7223 14.1915C38.9834 16.0046 39.4749 18.0173 40.402 19.4616L41.2828 21.121L40.6478 23.9019L38.2714 25.5663H34.9272ZM21.0173 18.8675C20.8842 20.8904 20.29 23.4358 18.4461 25.5663H12.8896C12.8896 25.5663 12.4594 24.5166 15.3838 23.9172C15.3838 23.9172 15.1891 22.6932 14.6463 21.377C16.0905 20.153 17.3863 19.1185 17.7498 19.0007C18.098 18.888 19.4553 18.8624 21.0173 18.8675ZM1.83743 17.8228C0.275435 15.7793 -0.712897 10.3147 5.74004 5.85408L9.13047 2.92976C9.13047 2.92976 10.7437 4.19465 9.13047 6.88853C9.13047 6.88853 10.3135 6.2072 10.5439 4.67584C10.5439 4.67584 14.5438 4.18967 17.1609 3.44661C17.2173 3.4213 22.4513 1.255 24.761 1.02457L24.1774 1.60314C24.1774 1.60314 28.5817 1.18829 31.0808 1.72085L30.0157 2.018C30.0157 2.018 35.6339 2.75032 36.5353 4.5171H35.6032C35.6032 4.5171 37.7339 4.97835 38.6299 8.27113L37.7592 7.87698C37.7592 7.87698 39.4032 9.74115 39.0601 11.9638L38.6249 11.544C38.4198 15.979 32.8426 17.5666 32.5815 24.4499L32.6325 25.5663H26.3947C26.3947 25.5663 26.7942 24.1476 29.1093 23.6664C29.1093 23.6664 26.2617 17.5871 27.4295 15.7025L26.4971 18.1966C26.4971 18.1966 18.3131 17.8945 17.381 18.1966C16.4489 18.4936 9.43256 24.8135 9.43256 24.8135L3.64536 24.7162C3.64536 24.7162 3.71196 23.6203 5.54043 23.2874L6.83595 23.1183C6.83595 23.1183 8.56704 20.153 8.86422 17.0085C9.65291 16.5322 10.1956 16.0046 10.8001 15.1288H10.2469C11.4504 14.4836 11.7322 13.659 11.7322 13.6539L11.8345 13.367L11.2713 13.49C12.0394 12.5681 11.4914 10.9857 11.4914 10.9857C11.4453 12.8806 11.261 12.8395 10.4108 14.0175L11.2508 13.8433C11.0151 14.1866 9.85766 15.0468 8.74636 15.4412L9.96524 15.4719C9.76031 15.6308 9.44794 16.02 8.89988 16.4041V16.3989C8.89988 16.3989 8.64901 16.5783 8.19831 16.8189C8.05997 16.8855 7.91159 16.947 7.75274 17.0085L7.76298 17.0341C6.50311 17.6281 4.31618 18.3501 1.83743 17.8228Z" fill="#937860"/>
</svg>
